<?xml version="1.0" encoding="UTF-8"?>
<svg width="350px" height="113px" viewBox="0 0 350 113" version="1.1" xmlns="http://www.w3.org/2000/svg" xmlns:xlink="http://www.w3.org/1999/xlink">
    <!-- Generator: Sketch 50.2 (55047) - http://www.bohemiancoding.com/sketch -->
    <title>amep</title>
    <desc>Created with Sketch.</desc>
    <defs></defs>
    <g id="Page-1" stroke="none" stroke-width="1" fill="none" fill-rule="evenodd">
        <g id="AMEPv3.0" transform="translate(-101.000000, -99.000000)">
            <g id="amep" transform="translate(100.000000, 99.000000)">
                <g id="Group-4" transform="translate(252.000000, 0.000000)">
                    <polygon id="Path" fill="#FF5800" points="15.5435203 27.4071567 15.5435203 37.2166344 7.81914894 41.5764023 7.67698259 41.5764023 0 36.884913 0 27.3597679 7.86653772 23"></polygon>
                    <polygon id="Path" fill="#FF5800" points="15.5435203 75.3597679 15.5435203 85.0270793 7.81914894 89.5764023 7.67698259 89.5764023 0 84.884913 0 75.3597679 7.86653772 71"></polygon>
                    <polygon id="Path" fill="#FF5800" points="57.401354 4.35976789 57.401354 14.0270793 49.7243714 18.3868472 42 13.6953578 42 4.21760155 49.7243714 0"></polygon>
                    <path d="M11.582205,48.0676983 L11.582205,52.901354 L7.79110251,55.1760155 L7.79110251,55.0338491 L4,52.7591876 L4,48.0676983 L7.79110251,45.9352031 L11.582205,48.0676983 Z M11.582205,59.6779497 L11.582205,64.3694391 L7.79110251,66.6441006 L4,64.2272727 L4,59.6779497 L7.79110251,57.5454545 L11.582205,59.6779497 Z M26.6992263,21.1982592 L26.6992263,25.8897485 L22.9081238,28.1644101 L19.1170213,25.7475822 L19.1170213,21.1982592 L22.9081238,18.9235977 L26.6992263,21.1982592 Z M27.3152805,39.016441 L27.3152805,43.8500967 L23.5241779,45.9825919 L19.7330754,43.7079304 L19.7330754,39.016441 L23.5241779,36.8839458 L27.3152805,39.016441 Z M27.4574468,68.5870406 L27.4574468,73.27853 L23.6663443,75.5531915 L19.8752418,73.1363636 L19.8752418,68.5870406 L23.6663443,66.4545455 L27.4574468,68.5870406 Z M27.8839458,86.4052224 L27.8839458,91.0967118 L24.0928433,93.3713733 L20.3017408,90.9545455 L20.3017408,86.4052224 L24.0928433,84.2727273 L27.8839458,86.4052224 Z M37.4090909,15.1324952 L37.4090909,19.8239845 L33.4758221,22.098646 L29.6847195,19.8239845 L29.6847195,15.1324952 L33.4758221,13 L37.4090909,15.1324952 Z M37.2669246,45.3665377 L37.2669246,50.0580271 L33.4758221,52.3326886 L29.6847195,50.0580271 L29.6847195,45.3665377 L33.4758221,43.2340426 L37.2669246,45.3665377 Z M37.4090909,62.426499 L37.4090909,67.2601547 L33.4758221,69.3926499 L29.6847195,67.1179884 L29.6847195,62.426499 L33.4758221,60.2940039 L37.4090909,62.426499 Z M37.8829787,92.6131528 L37.8829787,97.4468085 L34.0918762,99.5793037 L30.3007737,97.3046422 L30.3007737,92.6131528 L34.0918762,90.4806576 L37.8829787,92.6131528 Z M52.9526112,24.5154739 L52.9526112,29.3491296 L49.1615087,31.4816248 L45.3704062,29.2069632 L45.3704062,24.5154739 L49.1615087,22.3829787 L52.9526112,24.5154739 Z M52.9526112,35.983559 L52.9526112,40.8172147 L49.1615087,43.0918762 L49.1615087,42.9497099 L45.3704062,40.6750484 L45.3704062,35.983559 L49.1615087,33.8510638 L52.9526112,35.983559 Z M52.9526112,72.2359768 L52.9526112,77.0696325 L49.1615087,79.344294 L45.3704062,76.9274662 L45.3704062,72.2359768 L49.1615087,70.1034816 L52.9526112,72.2359768 Z M52.9526112,83.9883946 L52.9526112,88.6798839 L49.1615087,90.9545455 L45.3704062,88.5377176 L45.3704062,83.9883946 L49.1615087,81.7137331 L52.9526112,83.9883946 Z M68.3539652,45.3665377 L68.3539652,50.0580271 L64.5628627,52.3326886 L60.7717602,50.0580271 L60.7717602,45.3665377 L64.5628627,43.2340426 L68.3539652,45.3665377 Z M68.3539652,62.426499 L68.3539652,67.2601547 L64.5628627,69.3926499 L60.7717602,67.1179884 L60.7717602,62.426499 L64.5628627,60.2940039 L68.3539652,62.426499 Z M68.3539652,92.8974855 L68.3539652,97.7311412 L64.5628627,99.8636364 L60.7717602,97.5889749 L60.7717602,92.8974855 L64.5628627,90.7649903 L68.3539652,92.8974855 Z M68.827853,15.1324952 L68.827853,19.8239845 L64.8945841,22.098646 L61.1034816,19.8239845 L61.1034816,15.1324952 L64.8945841,13 L68.827853,15.1324952 Z M78.3056093,39.016441 L78.3056093,43.8500967 L74.5145068,46.1247582 L74.5145068,45.9825919 L70.5812379,43.7079304 L70.5812379,39.016441 L74.5145068,36.8839458 L78.3056093,39.016441 Z M78.3056093,68.5870406 L78.3056093,73.4206963 L74.5145068,75.6953578 L70.7234043,73.27853 L70.7234043,68.5870406 L74.5145068,66.4545455 L78.3056093,68.5870406 Z M78.6373308,21.3404255 L78.6373308,26.1740812 L74.8462282,28.3065764 L71.0551257,26.0319149 L71.0551257,21.3404255 L74.8462282,19.2079304 L78.6373308,21.3404255 Z M78.9216634,87.0212766 L78.9216634,91.712766 L75.1305609,93.9874275 L71.3394584,91.5705996 L71.3394584,87.0212766 L75.1305609,84.7466151 L78.9216634,87.0212766 Z M93.8965184,48.0676983 L93.8965184,52.901354 L90.1054159,55.0338491 L86.3143133,52.7591876 L86.3143133,48.0676983 L90.1054159,45.9352031 L93.8965184,48.0676983 Z M94.0386847,59.5357834 L94.0386847,64.3694391 L90.1054159,66.6441006 L86.3143133,64.2272727 L86.3143133,59.5357834 L90.1054159,57.4032882 L94.0386847,59.5357834 Z" id="Shape" fill="#008C95" fill-rule="nonzero"></path>
                    <polygon id="Path" fill="#FF5800" points="98.4961315 27.2649903 98.4961315 37.0744681 90.8191489 41.434236 90.6769826 41.434236 83 36.7427466 83 27.2176015 90.8665377 23"></polygon>
                    <polygon id="Path" fill="#FF5800" points="57.401354 98.3597679 57.401354 108.027079 49.7243714 112.576402 49.7243714 112.434236 42 107.742747 42 98.3597679 49.7243714 94"></polygon>
                    <polygon id="Path" fill="#FF5800" points="98.3539652 75.3597679 98.3539652 85.0270793 90.6769826 89.5764023 90.5348162 89.5764023 83 84.884913 83 75.3597679 90.7243714 71"></polygon>
                    <polygon id="Path" fill="#FF5800" points="57.401354 51.3597679 57.401354 61.0270793 49.7243714 65.5764023 42 60.884913 42 51.3597679 49.7243714 47"></polygon>
                </g>
                <g id="Group" transform="translate(0.000000, 37.000000)">
                    <path d="M1.092,43.504 L6.576,43.504 L6.576,44.584 L2.244,44.584 L2.244,47.116 L6.276,47.116 L6.276,48.196 L2.244,48.196 L2.244,50.92 L6.792,50.92 L6.792,52 L1.092,52 L1.092,43.504 Z M12.144,43.504 L13.656,43.504 L18.336,50.488 L18.36,50.488 L18.36,43.504 L19.512,43.504 L19.512,52 L18.048,52 L13.32,45.016 L13.296,45.016 L13.296,52 L12.144,52 L12.144,43.504 Z M32.6520001,47.248 L32.6520001,51.436 C32.443999,51.5640006 32.2080014,51.6759995 31.9440001,51.772 C31.6799987,51.8680005 31.4060015,51.9499997 31.1220001,52.018 C30.8379986,52.0860003 30.5500015,52.1359998 30.2580001,52.168 C29.9659986,52.2000002 29.6920013,52.216 29.4360001,52.216 C28.7159965,52.216 28.0740029,52.0960012 27.5100001,51.856 C26.9459972,51.6159988 26.470002,51.292002 26.0820001,50.884 C25.6939981,50.475998 25.3980011,50.0020027 25.1940001,49.462 C24.989999,48.9219973 24.8880001,48.352003 24.8880001,47.752 C24.8880001,47.1199968 24.997999,46.5320027 25.2180001,45.988 C25.4380012,45.4439973 25.7419981,44.972002 26.1300001,44.572 C26.518002,44.171998 26.9839973,43.8580011 27.5280001,43.63 C28.0720028,43.4019989 28.6679968,43.288 29.3160001,43.288 C30.100004,43.288 30.7399976,43.385999 31.2360001,43.582 C31.7320025,43.778001 32.1479984,44.0479983 32.4840001,44.392 L31.6680001,45.268 C31.3159983,44.9319983 30.944002,44.6980007 30.5520001,44.566 C30.1599981,44.4339993 29.7480022,44.368 29.3160001,44.368 C28.8279976,44.368 28.388002,44.4579991 27.9960001,44.638 C27.6039981,44.8180009 27.2680015,45.0599985 26.9880001,45.364 C26.7079987,45.6680015 26.4920008,46.0259979 26.3400001,46.438 C26.1879993,46.8500021 26.1120001,47.2879977 26.1120001,47.752 C26.1120001,48.2320024 26.1959992,48.6779979 26.3640001,49.09 C26.5320009,49.5020021 26.7639986,49.8599985 27.0600001,50.164 C27.3560015,50.4680015 27.7039981,50.7059991 28.1040001,50.878 C28.5040021,51.0500009 28.9399977,51.136 29.4120001,51.136 C29.8200021,51.136 30.2059982,51.0980004 30.5700001,51.022 C30.9340019,50.9459996 31.2439988,50.8360007 31.5000001,50.692 L31.5000001,48.328 L29.6160001,48.328 L29.6160001,47.248 L32.6520001,47.248 Z M38.4720001,43.504 L39.6240001,43.504 L39.6240001,52 L38.4720001,52 L38.4720001,43.504 Z M45.5280001,43.504 L47.0400001,43.504 L51.7200001,50.488 L51.7440001,50.488 L51.7440001,43.504 L52.8960001,43.504 L52.8960001,52 L51.4320001,52 L46.7040001,45.016 L46.6800001,45.016 L46.6800001,52 L45.5280001,52 L45.5280001,43.504 Z M58.8000001,43.504 L64.2840001,43.504 L64.2840001,44.584 L59.9520001,44.584 L59.9520001,47.116 L63.9840001,47.116 L63.9840001,48.196 L59.9520001,48.196 L59.9520001,50.92 L64.5000001,50.92 L64.5000001,52 L58.8000001,52 L58.8000001,43.504 Z M69.8520002,43.504 L75.3360002,43.504 L75.3360002,44.584 L71.0040002,44.584 L71.0040002,47.116 L75.0360002,47.116 L75.0360002,48.196 L71.0040002,48.196 L71.0040002,50.92 L75.5520002,50.92 L75.5520002,52 L69.8520002,52 L69.8520002,43.504 Z M80.9040002,43.504 L83.8920002,43.504 C84.4360029,43.504 84.8839984,43.5779993 85.2360002,43.726 C85.588002,43.8740007 85.8659992,44.0619989 86.0700002,44.29 C86.2740012,44.5180011 86.4159998,44.7739986 86.4960002,45.058 C86.5760006,45.3420014 86.6160002,45.6159987 86.6160002,45.88 C86.6160002,46.1520014 86.5680007,46.4139987 86.4720002,46.666 C86.3759997,46.9180013 86.2380011,47.145999 86.0580002,47.35 C85.8779993,47.554001 85.6580015,47.7259993 85.3980002,47.866 C85.1379989,48.0060007 84.8480018,48.0919998 84.5280002,48.124 L86.9400002,52 L85.5000002,52 L83.3400002,48.256 L82.0560002,48.256 L82.0560002,52 L80.9040002,52 L80.9040002,43.504 Z M82.0560002,47.248 L83.5680002,47.248 C83.7920013,47.248 84.0139991,47.2300002 84.2340002,47.194 C84.4540013,47.1579998 84.6499993,47.0920005 84.8220002,46.996 C84.9940011,46.8999995 85.1319997,46.7620009 85.2360002,46.582 C85.3400007,46.4019991 85.3920002,46.1680014 85.3920002,45.88 C85.3920002,45.5919986 85.3400007,45.3580009 85.2360002,45.178 C85.1319997,44.9979991 84.9940011,44.8600005 84.8220002,44.764 C84.6499993,44.6679995 84.4540013,44.6020002 84.2340002,44.566 C84.0139991,44.5299998 83.7920013,44.512 83.5680002,44.512 L82.0560002,44.512 L82.0560002,47.248 Z M91.9560002,43.504 L93.1080002,43.504 L93.1080002,52 L91.9560002,52 L91.9560002,43.504 Z M99.0120003,43.504 L100.524,43.504 L105.204,50.488 L105.228,50.488 L105.228,43.504 L106.38,43.504 L106.38,52 L104.916,52 L100.188,45.016 L100.164,45.016 L100.164,52 L99.0120003,52 L99.0120003,43.504 Z M119.52,47.248 L119.52,51.436 C119.311999,51.5640006 119.076002,51.6759995 118.812,51.772 C118.547999,51.8680005 118.274002,51.9499997 117.99,52.018 C117.705999,52.0860003 117.418002,52.1359998 117.126,52.168 C116.833999,52.2000002 116.560002,52.216 116.304,52.216 C115.583997,52.216 114.942003,52.0960012 114.378,51.856 C113.813997,51.6159988 113.338002,51.292002 112.95,50.884 C112.561998,50.475998 112.266001,50.0020027 112.062,49.462 C111.857999,48.9219973 111.756,48.352003 111.756,47.752 C111.756,47.1199968 111.865999,46.5320027 112.086,45.988 C112.306001,45.4439973 112.609998,44.972002 112.998,44.572 C113.386002,44.171998 113.851998,43.8580011 114.396,43.63 C114.940003,43.4019989 115.535997,43.288 116.184,43.288 C116.968004,43.288 117.607998,43.385999 118.104,43.582 C118.600003,43.778001 119.015999,44.0479983 119.352,44.392 L118.536,45.268 C118.183999,44.9319983 117.812002,44.6980007 117.42,44.566 C117.027998,44.4339993 116.616002,44.368 116.184,44.368 C115.695998,44.368 115.256002,44.4579991 114.864,44.638 C114.471998,44.8180009 114.136002,45.0599985 113.856,45.364 C113.575999,45.6680015 113.360001,46.0259979 113.208,46.438 C113.056,46.8500021 112.98,47.2879977 112.98,47.752 C112.98,48.2320024 113.063999,48.6779979 113.232,49.09 C113.400001,49.5020021 113.631999,49.8599985 113.928,50.164 C114.224002,50.4680015 114.571998,50.7059991 114.972,50.878 C115.372002,51.0500009 115.807998,51.136 116.28,51.136 C116.688002,51.136 117.073998,51.0980004 117.438,51.022 C117.802002,50.9459996 118.111999,50.8360007 118.368,50.692 L118.368,48.328 L116.484,48.328 L116.484,47.248 L119.52,47.248 Z M139.452,43.504 L142.44,43.504 C142.984003,43.504 143.431999,43.5779993 143.784,43.726 C144.136002,43.8740007 144.413999,44.0619989 144.618,44.29 C144.822001,44.5180011 144.964,44.7739986 145.044,45.058 C145.124001,45.3420014 145.164,45.6159987 145.164,45.88 C145.164,46.1440013 145.124001,46.4179986 145.044,46.702 C144.964,46.9860014 144.822001,47.2419989 144.618,47.47 C144.413999,47.6980011 144.136002,47.8859993 143.784,48.034 C143.431999,48.1820007 142.984003,48.256 142.44,48.256 L140.604,48.256 L140.604,52 L139.452,52 L139.452,43.504 Z M140.604,47.248 L142.116,47.248 C142.340001,47.248 142.561999,47.2300002 142.782,47.194 C143.002001,47.1579998 143.198,47.0920005 143.37,46.996 C143.542001,46.8999995 143.68,46.7620009 143.784,46.582 C143.888001,46.4019991 143.94,46.1680014 143.94,45.88 C143.94,45.5919986 143.888001,45.3580009 143.784,45.178 C143.68,44.9979991 143.542001,44.8600005 143.37,44.764 C143.198,44.6679995 143.002001,44.6020002 142.782,44.566 C142.561999,44.5299998 142.340001,44.512 142.116,44.512 L140.604,44.512 L140.604,47.248 Z M150.288,43.504 L151.44,43.504 L151.44,50.92 L155.34,50.92 L155.34,52 L150.288,52 L150.288,43.504 Z M162.9,43.504 L163.944,43.504 L167.58,52 L166.236,52 L165.384,49.9 L161.34,49.9 L160.5,52 L159.156,52 L162.9,43.504 Z M164.964,48.892 L163.38,44.992 L163.356,44.992 L161.748,48.892 L164.964,48.892 Z M173.076,44.584 L170.34,44.584 L170.34,43.504 L176.964,43.504 L176.964,44.584 L174.228,44.584 L174.228,52 L173.076,52 L173.076,44.584 Z M181.908,43.504 L187.248,43.504 L187.248,44.584 L183.06,44.584 L183.06,47.248 L186.96,47.248 L186.96,48.328 L183.06,48.328 L183.06,52 L181.908,52 L181.908,43.504 Z M196.416001,52.216 C195.767997,52.216 195.172003,52.1020011 194.628001,51.874 C194.083998,51.6459989 193.618002,51.332002 193.230001,50.932 C192.841999,50.531998 192.538002,50.0600027 192.318001,49.516 C192.097999,48.9719973 191.988001,48.3840032 191.988001,47.752 C191.988001,47.1199968 192.097999,46.5320027 192.318001,45.988 C192.538002,45.4439973 192.841999,44.972002 193.230001,44.572 C193.618002,44.171998 194.083998,43.8580011 194.628001,43.63 C195.172003,43.4019989 195.767997,43.288 196.416001,43.288 C197.064004,43.288 197.659998,43.4019989 198.204001,43.63 C198.748003,43.8580011 199.213999,44.171998 199.602001,44.572 C199.990002,44.972002 200.293999,45.4439973 200.514001,45.988 C200.734002,46.5320027 200.844001,47.1199968 200.844001,47.752 C200.844001,48.3840032 200.734002,48.9719973 200.514001,49.516 C200.293999,50.0600027 199.990002,50.531998 199.602001,50.932 C199.213999,51.332002 198.748003,51.6459989 198.204001,51.874 C197.659998,52.1020011 197.064004,52.216 196.416001,52.216 Z M196.416001,51.136 C196.904003,51.136 197.343999,51.0460009 197.736001,50.866 C198.128002,50.6859991 198.463999,50.4440015 198.744001,50.14 C199.024002,49.8359985 199.24,49.4780021 199.392001,49.066 C199.544001,48.6539979 199.620001,48.2160023 199.620001,47.752 C199.620001,47.2879977 199.544001,46.8500021 199.392001,46.438 C199.24,46.0259979 199.024002,45.6680015 198.744001,45.364 C198.463999,45.0599985 198.128002,44.8180009 197.736001,44.638 C197.343999,44.4579991 196.904003,44.368 196.416001,44.368 C195.927998,44.368 195.488002,44.4579991 195.096001,44.638 C194.703999,44.8180009 194.368002,45.0599985 194.088001,45.364 C193.807999,45.6680015 193.592001,46.0259979 193.440001,46.438 C193.288,46.8500021 193.212001,47.2879977 193.212001,47.752 C193.212001,48.2160023 193.288,48.6539979 193.440001,49.066 C193.592001,49.4780021 193.807999,49.8359985 194.088001,50.14 C194.368002,50.4440015 194.703999,50.6859991 195.096001,50.866 C195.488002,51.0460009 195.927998,51.136 196.416001,51.136 Z M206.220001,43.504 L209.208001,43.504 C209.752003,43.504 210.199999,43.5779993 210.552001,43.726 C210.904002,43.8740007 211.182,44.0619989 211.386001,44.29 C211.590002,44.5180011 211.732,44.7739986 211.812001,45.058 C211.892001,45.3420014 211.932001,45.6159987 211.932001,45.88 C211.932001,46.1520014 211.884001,46.4139987 211.788001,46.666 C211.692,46.9180013 211.554001,47.145999 211.374001,47.35 C211.194,47.554001 210.974002,47.7259993 210.714001,47.866 C210.453999,48.0060007 210.164002,48.0919998 209.844001,48.124 L212.256001,52 L210.816001,52 L208.656001,48.256 L207.372001,48.256 L207.372001,52 L206.220001,52 L206.220001,43.504 Z M207.372001,47.248 L208.884001,47.248 C209.108002,47.248 209.329999,47.2300002 209.550001,47.194 C209.770002,47.1579998 209.966,47.0920005 210.138001,46.996 C210.310001,46.8999995 210.448,46.7620009 210.552001,46.582 C210.656001,46.4019991 210.708001,46.1680014 210.708001,45.88 C210.708001,45.5919986 210.656001,45.3580009 210.552001,45.178 C210.448,44.9979991 210.310001,44.8600005 210.138001,44.764 C209.966,44.6679995 209.770002,44.6020002 209.550001,44.566 C209.329999,44.5299998 209.108002,44.512 208.884001,44.512 L207.372001,44.512 L207.372001,47.248 Z M217.188001,43.504 L218.904001,43.504 L221.604001,49.936 L221.652001,49.936 L224.328001,43.504 L226.044001,43.504 L226.044001,52 L224.892001,52 L224.892001,45.016 L224.868001,45.016 L222.000001,52 L221.232001,52 L218.364001,45.016 L218.340001,45.016 L218.340001,52 L217.188001,52 L217.188001,43.504 Z" id="ENGINEERING-PLATFORM" fill="#4A4A4A"></path>
                    <path d="M1,0.882 L12.564,0.882 L20.551,23.52 L20.649,23.52 L28.685,0.882 L40.2,0.882 L40.2,35.574 L32.556,35.574 L32.556,8.967 L32.458,8.967 L23.344,35.574 L17.513,35.574 L8.742,8.967 L8.644,8.967 L8.644,35.574 L1,35.574 L1,0.882 Z M46.7210832,18.228 C46.7210832,15.4513194 47.1865786,12.9360113 48.1175832,10.682 C49.0485879,8.42798873 50.3470749,6.50884126 52.0130832,4.9245 C53.6790916,3.34015874 55.6554051,2.12333758 57.9420832,1.274 C60.2287613,0.42466242 62.7277363,0 65.4390832,0 C68.1504301,0 70.6494051,0.42466242 72.9360832,1.274 C75.2227613,2.12333758 77.1990749,3.34015874 78.8650832,4.9245 C80.5310916,6.50884126 81.8295786,8.42798873 82.7605832,10.682 C83.6915879,12.9360113 84.1570832,15.4513194 84.1570832,18.228 C84.1570832,21.0046806 83.6915879,23.5199887 82.7605832,25.774 C81.8295786,28.0280113 80.5310916,29.9471587 78.8650832,31.5315 C77.1990749,33.1158413 75.2227613,34.3326624 72.9360832,35.182 C70.6494051,36.0313376 68.1504301,36.456 65.4390832,36.456 C62.7277363,36.456 60.2287613,36.0313376 57.9420832,35.182 C55.6554051,34.3326624 53.6790916,33.1158413 52.0130832,31.5315 C50.3470749,29.9471587 49.0485879,28.0280113 48.1175832,25.774 C47.1865786,23.5199887 46.7210832,21.0046806 46.7210832,18.228 Z M54.6590832,18.228 C54.6590832,19.8613415 54.9122474,21.3558266 55.4185832,22.7115 C55.9249191,24.0671734 56.6517452,25.2431617 57.5990832,26.2395 C58.5464213,27.2358383 59.6815766,28.0116639 61.0045832,28.567 C62.3275898,29.1223361 63.8057417,29.4 65.4390832,29.4 C67.0724247,29.4 68.5505766,29.1223361 69.8735832,28.567 C71.1965898,28.0116639 72.3317452,27.2358383 73.2790832,26.2395 C74.2264213,25.2431617 74.9532474,24.0671734 75.4595832,22.7115 C75.9659191,21.3558266 76.2190832,19.8613415 76.2190832,18.228 C76.2190832,16.6273253 75.9659191,15.1410069 75.4595832,13.769 C74.9532474,12.3969931 74.2264213,11.2128383 73.2790832,10.2165 C72.3317452,9.22016168 71.1965898,8.44433611 69.8735832,7.889 C68.5505766,7.33366389 67.0724247,7.056 65.4390832,7.056 C63.8057417,7.056 62.3275898,7.33366389 61.0045832,7.889 C59.6815766,8.44433611 58.5464213,9.22016168 57.5990832,10.2165 C56.6517452,11.2128383 55.9249191,12.3969931 55.4185832,13.769 C54.9122474,15.1410069 54.6590832,16.6273253 54.6590832,18.228 Z M90.6781665,0.882 L102.144166,0.882 C104.920847,0.882 107.558654,1.19233023 110.057666,1.813 C112.556679,2.43366977 114.737157,3.43815973 116.599166,4.8265 C118.461176,6.21484027 119.939328,8.01965556 121.033666,10.241 C122.128005,12.4623444 122.675166,15.1573175 122.675166,18.326 C122.675166,21.1353474 122.144338,23.6098226 121.082666,25.7495 C120.020994,27.8891774 118.591842,29.6858261 116.795166,31.1395 C114.998491,32.5931739 112.924178,33.6956629 110.572166,34.447 C108.220155,35.1983371 105.753846,35.574 103.173166,35.574 L90.6781665,35.574 L90.6781665,0.882 Z M98.3221665,28.518 L102.291166,28.518 C104.055175,28.518 105.696659,28.3383351 107.215666,27.979 C108.734674,27.6196649 110.049494,27.0235042 111.160166,26.1905 C112.270839,25.3574958 113.144663,24.2631734 113.781666,22.9075 C114.41867,21.5518266 114.737166,19.8940098 114.737166,17.934 C114.737166,16.2353248 114.41867,14.757173 113.781666,13.4995 C113.144663,12.241827 112.287172,11.2046708 111.209166,10.388 C110.131161,9.57132925 108.86534,8.95883537 107.411666,8.5505 C105.957993,8.14216462 104.430841,7.938 102.830166,7.938 L98.3221665,7.938 L98.3221665,28.518 Z M161.393333,0.882 L174.819333,0.882 C176.583342,0.882 178.257492,1.05349829 179.841833,1.3965 C181.426174,1.73950172 182.814494,2.31116266 184.006833,3.1115 C185.199172,3.91183734 186.146496,4.98982655 186.848833,6.3455 C187.55117,7.70117344 187.902333,9.39165654 187.902333,11.417 C187.902333,13.8670123 187.265339,15.9494914 185.991333,17.6645 C184.717327,19.3795086 182.855345,20.4656644 180.405333,20.923 L189.225333,35.574 L180.062333,35.574 L172.810333,21.707 L169.037333,21.707 L169.037333,35.574 L161.393333,35.574 L161.393333,0.882 Z M169.037333,15.239 L173.545333,15.239 C174.231336,15.239 174.958162,15.2145002 175.725833,15.1655 C176.493503,15.1164998 177.187663,14.9695012 177.808333,14.7245 C178.429003,14.4794988 178.943498,14.0956693 179.351833,13.573 C179.760168,13.0503307 179.964333,12.3153381 179.964333,11.368 C179.964333,10.4859956 179.784668,9.78366928 179.425333,9.261 C179.065998,8.73833072 178.608669,8.33816805 178.053333,8.0605 C177.497997,7.78283194 176.861003,7.59500049 176.142333,7.497 C175.423663,7.39899951 174.721336,7.35 174.035333,7.35 L169.037333,7.35 L169.037333,15.239 Z M194.472416,0.882 L204.860416,0.882 L219.609416,24.99 L219.707416,24.99 L219.707416,0.882 L227.351416,0.882 L227.351416,35.574 L217.355416,35.574 L202.214416,10.878 L202.116416,10.878 L202.116416,35.574 L194.472416,35.574 L194.472416,0.882 Z" id="MODERN" fill="#FF5800"></path>
                    <rect id="Rectangle" fill="#008C95" x="129" y="0" width="24" height="6"></rect>
                    <rect id="Rectangle" fill="#008C95" x="129" y="14" width="24" height="6"></rect>
                    <rect id="Rectangle" fill="#008C95" x="129" y="29" width="24" height="6"></rect>
                </g>
            </g>
        </g>
    </g>
</svg>