<?xml version="1.0" encoding="utf-8"?>
<!-- Generator: Adobe Illustrator 23.0.2, SVG Export Plug-In . SVG Version: 6.00 Build 0)  -->
<svg version="1.1" xmlns="http://www.w3.org/2000/svg" xmlns:xlink="http://www.w3.org/1999/xlink" x="0px" y="0px"
	 viewBox="0 0 467.74 120.88" style="enable-background:new 0 0 467.74 120.88;" xml:space="preserve">
<style type="text/css">
	.st0{display:none;}
</style>
<g id="Black_Logo">
	<path d="M163.29,49.53c-2.69,0-5.3,0.24-7.83,0.73c-2.53,0.48-4.55,1.16-6.05,2.02l0.81,7.59c2.26-0.65,4.28-1.1,6.05-1.37
		c1.78-0.27,3.58-0.4,5.41-0.4c6.89,0,10.33,2.64,10.33,7.91v1.78c-1.61-0.32-3.87-0.48-6.78-0.48c-6.03,0-10.79,1.35-14.29,4.04
		c-3.5,2.69-5.25,6.4-5.25,11.14c0,9.69,6.62,14.53,19.85,14.53c5.38,0,10.98-0.81,16.79-2.42V66.8
		C182.34,55.29,175.99,49.53,163.29,49.53z M172.01,88.27c-1.94,0.54-4.14,0.81-6.62,0.81c-6.24,0-9.36-2.26-9.36-6.78
		c0-4.73,3.44-7.1,10.33-7.1c2.8,0,4.68,0.16,5.65,0.48V88.27z"/>
	<polygon points="187.02,50.66 198.48,50.66 209.62,85.53 220.92,50.66 231.9,50.66 214.79,95.86 204.13,95.86 	"/>
	<path d="M251.91,49.53c-2.69,0-5.3,0.24-7.83,0.73c-2.53,0.48-4.55,1.16-6.05,2.02l0.81,7.59c2.26-0.65,4.28-1.1,6.05-1.37
		c1.78-0.27,3.58-0.4,5.41-0.4c6.89,0,10.33,2.64,10.33,7.91v1.78c-1.61-0.32-3.87-0.48-6.78-0.48c-6.03,0-10.79,1.35-14.29,4.04
		c-3.5,2.69-5.25,6.4-5.25,11.14c0,9.69,6.62,14.53,19.86,14.53c5.38,0,10.98-0.81,16.79-2.42V66.8
		C270.96,55.29,264.61,49.53,251.91,49.53z M260.63,88.27c-1.94,0.54-4.14,0.81-6.62,0.81c-6.24,0-9.36-2.26-9.36-6.78
		c0-4.73,3.44-7.1,10.33-7.1c2.8,0,4.68,0.16,5.65,0.48V88.27z"/>
	<path d="M310.92,69.22c0-4.09-0.78-6.91-2.34-8.47c-1.56-1.56-4.33-2.34-8.31-2.34c-0.97,0-2.13,0.11-3.47,0.32
		c-1.35,0.22-2.61,0.48-3.79,0.81v36.32h-10.49V52.92c2.69-1.07,5.76-1.91,9.2-2.5c3.44-0.59,6.78-0.89,10.01-0.89
		c13.13,0,19.69,5.92,19.69,17.76v28.57h-10.49V69.22z"/>
	<path d="M347.24,49.53c-2.69,0-5.3,0.24-7.83,0.73c-2.53,0.48-4.55,1.16-6.05,2.02l0.81,7.59c2.26-0.65,4.28-1.1,6.05-1.37
		c1.78-0.27,3.58-0.4,5.41-0.4c6.89,0,10.33,2.64,10.33,7.91v1.78c-1.61-0.32-3.87-0.48-6.78-0.48c-6.03,0-10.79,1.35-14.29,4.04
		c-3.5,2.69-5.25,6.4-5.25,11.14c0,9.69,6.62,14.53,19.85,14.53c5.38,0,10.98-0.81,16.79-2.42V66.8
		C366.29,55.29,359.94,49.53,347.24,49.53z M355.96,88.27c-1.94,0.54-4.14,0.81-6.62,0.81c-6.24,0-9.36-2.26-9.36-6.78
		c0-4.73,3.44-7.1,10.33-7.1c2.8,0,4.68,0.16,5.65,0.48V88.27z"/>
	<path d="M405.36,33.23V50.5c-1.94-0.65-4.47-0.97-7.59-0.97c-6.89,0-12.49,2.23-16.79,6.7c-4.31,4.47-6.46,10.31-6.46,17.52
		c0,7.53,2.1,13.29,6.3,17.27c4.2,3.98,10.33,5.97,18.4,5.97c5.06,0,10.6-0.81,16.63-2.42V33.23H405.36z M405.36,87.63
		c-1.19,0.43-3.34,0.65-6.46,0.65c-8.93,0-13.4-4.9-13.4-14.69c0-4.95,1.16-8.77,3.47-11.46c2.31-2.69,5.57-4.04,9.77-4.04
		c2.58,0,4.79,0.38,6.62,1.13V87.63z"/>
	<path d="M464.6,70.84c0-6.56-1.72-11.76-5.17-15.58c-3.45-3.82-8.13-5.73-14.04-5.73c-6.46,0-11.6,2.15-15.42,6.46
		c-3.82,4.31-5.73,10.17-5.73,17.59c0,7.43,2.04,13.18,6.13,17.27c4.09,4.09,9.9,6.13,17.43,6.13c4.95,0,9.63-0.86,14.04-2.58
		l-1.13-7.91c-3.77,1.29-7.8,1.94-12.11,1.94c-8.83,0-13.35-3.98-13.56-11.95h29.54V70.84z M435.06,68.58
		c0.32-3.44,1.37-6.13,3.15-8.07c1.78-1.94,4.06-2.91,6.86-2.91c2.8,0,5.06,0.97,6.78,2.91c1.72,1.94,2.58,4.63,2.58,8.07H435.06z"
		/>
	<g>
		<path d="M33.43,31.35c-3.56,6.94-6.45,12.48-8.67,16.61c-2.22,4.13-4.25,7.49-6.11,10.08c-1.85,2.59-3.82,4.7-5.9,6.34
			c-2.08,1.64-4.71,3.45-7.89,5.42L3.1,67.09c2.02-1.49,3.84-2.96,5.44-4.41c1.61-1.45,3.33-3.47,5.19-6.05
			c1.85-2.59,3.99-6.04,6.43-10.38c2.43-4.33,5.43-10.18,9.01-17.54c2.57-5.31,5-9.67,7.3-13.07c2.3-3.4,4.51-6.08,6.66-8.03
			c2.14-1.95,4.21-3.31,6.21-4.07c1.99-0.76,4.03-1.11,6.1-1.03c1.97,0.07,3.92,0.55,5.86,1.45c1.94,0.9,4.05,2.66,6.35,5.29
			c2.29,2.63,4.85,6.41,7.69,11.34c2.83,4.93,6.18,11.42,10.05,19.45c2.51,5.18,4.88,9.5,7.09,12.95c2.21,3.46,4.5,6.31,6.85,8.58
			c2.36,2.26,4.91,4.1,7.66,5.49c2.75,1.4,5.92,2.62,9.51,3.68l2.2,3.82c-4.34-0.46-8.2-1.3-11.58-2.51
			c-3.38-1.21-6.53-3.06-9.45-5.55c-2.92-2.49-5.74-5.71-8.45-9.65c-2.72-3.94-5.52-8.87-8.43-14.79
			c-3.59-7.19-6.62-13.04-9.11-17.55c-2.49-4.5-4.7-8.01-6.63-10.52c-1.93-2.51-3.66-4.21-5.19-5.09c-1.52-0.88-3.06-1.35-4.62-1.41
			c-1.66-0.06-3.28,0.28-4.86,1s-3.23,2.02-4.96,3.88c-1.72,1.86-3.57,4.35-5.55,7.45C37.92,22.91,35.77,26.76,33.43,31.35z"/>
		<path d="M86.43,76.86c5.28,0.18,10.47-0.08,15.58-0.78c5.1-0.7,9.65-1.77,13.64-3.19l0.52,2.82c-7.11,4.53-17.08,6.58-29.92,6.13
			c-5.8-0.2-10.8-0.87-15.01-2.01c-4.21-1.13-7.95-2.48-11.21-4.06c-2.45-1.12-4.79-2.3-7.03-3.52c-2.24-1.22-4.51-2.34-6.8-3.36
			c-2.3-1.02-4.65-1.88-7.06-2.59c-2.41-0.71-4.96-1.11-7.66-1.2c-4.04-0.14-8.12,0.16-12.24,0.9c-4.12,0.74-8.18,1.87-12.17,3.39
			l-1.79-2.09l3.32-1.6c3.18-1.86,6.83-3.29,10.96-4.29c4.13-1,8.16-1.43,12.1-1.29c3.11,0.11,5.97,0.52,8.59,1.24
			c2.62,0.72,5.1,1.61,7.45,2.68c2.35,1.07,4.69,2.24,7.03,3.52c2.34,1.28,4.79,2.48,7.34,3.61c3.27,1.47,6.75,2.73,10.44,3.79
			C76.19,76.03,80.83,76.66,86.43,76.86z"/>
		<path d="M93.98,38.77c-1.86-0.07-3.64,0.37-5.33,1.29c-1.69,0.93-3.64,2.65-5.86,5.17c-2.21,2.52-4.8,5.99-7.75,10.41
			c-2.95,4.42-6.63,10.14-11.02,17.15c-5.93,9.56-11.44,16.46-16.51,20.7c-5.07,4.24-10.4,6.26-16,6.07
			c-5.9-0.21-11.45-3.15-16.64-8.84C9.68,85.04,5.76,77.16,3.1,67.09l4.94,0.95c2.73,8,6.18,14.38,10.37,19.15
			c4.19,4.77,8.61,7.24,13.27,7.4c4.35,0.15,8.74-1.67,13.18-5.46c4.43-3.79,9.34-10.01,14.73-18.66
			c4.83-7.73,8.89-14.01,12.17-18.83c3.28-4.82,6.16-8.57,8.63-11.24c2.48-2.67,4.77-4.46,6.87-5.37c2.1-0.91,4.4-1.33,6.89-1.24
			c5.59,0.2,10.55,3.54,14.89,10.03c4.33,6.49,8.19,16.4,11.56,29.71l-5.37-2.21c-3.35-11.03-6.74-19.18-10.19-24.44
			C101.6,41.61,97.91,38.91,93.98,38.77z"/>
		<path d="M75.03,113.87c2.59,0.09,5.16-0.78,7.71-2.61c2.55-1.84,5.78-5.33,9.7-10.5c3.04-3.95,5.54-7.21,7.5-9.79
			c1.96-2.58,3.8-4.86,5.53-6.82c1.73-1.97,3.5-3.85,5.33-5.66c1.82-1.81,4.08-4.01,6.76-6.62l3.05,1.67
			c-2.48,2.82-4.56,5.22-6.24,7.19c-1.68,1.97-3.33,3.99-4.96,6.06c-1.63,2.07-3.42,4.4-5.38,6.98c-1.96,2.58-4.46,5.9-7.5,9.95
			c-4.14,5.57-7.82,9.52-11.07,11.85c-3.25,2.33-6.78,3.43-10.61,3.29c-2.07-0.07-3.95-0.43-5.64-1.05
			c-1.69-0.63-3.64-1.84-5.86-3.63c-2.22-1.79-4.83-4.33-7.82-7.6c-3-3.28-6.79-7.54-11.37-12.79c-3.49-3.97-6.64-7.3-9.45-10
			c-2.81-2.69-5.61-4.87-8.4-6.53c-2.79-1.66-5.73-2.95-8.81-3.89c-3.08-0.94-6.68-1.64-10.81-2.09l1.22-3.7
			c4.24,0.36,8,0.9,11.29,1.64c3.29,0.74,6.41,1.94,9.36,3.6c2.95,1.66,5.93,3.87,8.94,6.63c3.01,2.76,6.36,6.28,10.05,10.56
			c4.58,5.25,8.33,9.44,11.23,12.55c2.9,3.11,5.3,5.51,7.21,7.19c1.91,1.68,3.53,2.77,4.86,3.29
			C72.18,113.54,73.57,113.82,75.03,113.87z"/>
	</g>
</g>
<g id="guide" class="st0">
</g>
</svg>
