<svg xmlns="http://www.w3.org/2000/svg" xmlns:xlink="http://www.w3.org/1999/xlink" viewBox="0 0 71.16 72.67"><defs><style>.cls-1{fill:#fff;}.cls-2{mask:url(#mask);}.cls-3,.cls-6{fill:#7b56a4;}.cls-4{fill:url(#linear-gradient);}.cls-5{fill:#9778b6;}.cls-13,.cls-6,.cls-7{fill-rule:evenodd;}.cls-7{fill:#603a96;}.cls-8{opacity:0.5;}.cls-9{fill:#4f2b83;}.cls-10{fill:#ac8dc1;}.cls-11{fill:#c0a5ce;}.cls-12{fill:#8864ab;}.cls-13{fill:#decce4;}.cls-14{opacity:0.25;isolation:isolate;fill:url(#linear-gradient-2);}</style><mask id="mask" x="0" y="0" width="71.16" height="72.67" maskUnits="userSpaceOnUse"><g id="mask0"><path id="Mask-2" data-name="Mask" class="cls-1" d="M20.33,1.51A1.52,1.52,0,0,1,21.85,0H49.3a1.52,1.52,0,0,1,1.53,1.51v3A1.52,1.52,0,0,1,49.3,6.06H47.78V21L69.92,59.05A9.08,9.08,0,0,1,62,72.67H9.16A9.08,9.08,0,0,1,1.24,59.05L23.38,21V6.06H21.85a1.52,1.52,0,0,1-1.52-1.52Z"/></g></mask><linearGradient id="linear-gradient" x1="-1494.66" y1="538.76" x2="-1493.9" y2="538.76" gradientTransform="matrix(0, -8, -16.12, 0, 8719.08, -11945.11)" gradientUnits="userSpaceOnUse"><stop offset="0" stop-color="#734fa0"/><stop offset="1" stop-color="#644199"/></linearGradient><linearGradient id="linear-gradient-2" x1="-1466.45" y1="644.98" x2="-1465.7" y2="644.98" gradientTransform="matrix(0, 96, 94, 0, -60592.26, 140779.55)" gradientUnits="userSpaceOnUse"><stop offset="0" stop-color="#fff"/><stop offset="1" stop-color="#fff" stop-opacity="0"/></linearGradient></defs><title>DevOpsIconTestPlans96</title><g id="Layer_2" data-name="Layer 2"><g id="Layer_1-2" data-name="Layer 1"><g id="DevOpsIconTestPlans96"><g class="cls-2"><g id="Beaker"><path id="Polygon" class="cls-3" d="M27.65,13.63a9.18,9.18,0,0,1,15.85,0L69.92,59.05A9.08,9.08,0,0,1,62,72.67H9.16A9.08,9.08,0,0,1,1.24,59.05Z"/><path id="Vector" class="cls-4" d="M47.78,21.2V6.06H23.38V21.2Z"/><path class="cls-5" d="M20.33,1.52A1.52,1.52,0,0,1,21.85,0H49.31a1.52,1.52,0,0,1,1.52,1.52v3a1.52,1.52,0,0,1-1.52,1.52H21.85a1.52,1.52,0,0,1-1.52-1.52Z"/><path class="cls-6" d="M47.78,6.06H23.38V0h24.4Z"/></g><path id="Liquid" class="cls-7" d="M65.52,51.48l4.4,7.57A9.08,9.08,0,0,1,62,72.67H9.16A9.08,9.08,0,0,1,1.24,59.05l4.4-7.57Z"/><g id="Union" class="cls-8"><path class="cls-9" d="M41.27,48.37a7.58,7.58,0,1,0-8.66-8.6,12,12,0,0,0-3.13-.41,12.12,12.12,0,1,0,12.2,12.12A11.79,11.79,0,0,0,41.27,48.37Z"/></g><g id="Bubbles"><path id="Vector_2" data-name="Vector 2" class="cls-10" d="M40.15,48.45a7.57,7.57,0,1,0-7.62-7.57A7.6,7.6,0,0,0,40.15,48.45Z"/><path id="Vector_3" data-name="Vector 3" class="cls-11" d="M29.48,63.59a12.12,12.12,0,1,0-12.2-12.11A12.16,12.16,0,0,0,29.48,63.59Z"/><path id="Intersect" class="cls-12" d="M41.68,51.48a12.2,12.2,0,0,1-24.4,0Z"/><path id="Intersect_2" data-name="Intersect 2" class="cls-13" d="M41.27,48.37a8.2,8.2,0,0,1-1.12.08,7.59,7.59,0,0,1-7.62-7.57,8.05,8.05,0,0,1,.08-1.11A12.16,12.16,0,0,1,41.27,48.37Z"/></g><path class="cls-14" d="M20.33,1.51A1.52,1.52,0,0,1,21.85,0H49.3a1.52,1.52,0,0,1,1.53,1.51v3A1.52,1.52,0,0,1,49.3,6.06H47.78V21L69.92,59.05A9.08,9.08,0,0,1,62,72.67H9.16A9.08,9.08,0,0,1,1.24,59.05L23.38,21V6.06H21.85a1.52,1.52,0,0,1-1.52-1.52Z"/></g></g></g></g></svg>