<svg xmlns="http://www.w3.org/2000/svg" xmlns:xlink="http://www.w3.org/1999/xlink" viewBox="0 0 86.97 86.97"><defs><style>.cls-1{fill:#fff;}.cls-2{mask:url(#mask);}.cls-11,.cls-3{fill:#97afdb;}.cls-3,.cls-5,.cls-6,.cls-7,.cls-8{fill-rule:evenodd;}.cls-4{fill:#3051a4;}.cls-5{fill:#223f99;}.cls-6{fill:#4264af;}.cls-10,.cls-7{fill:#3252a4;}.cls-8{fill:#7a96cd;}.cls-9{fill:#597abc;}.cls-12{opacity:0.2;}.cls-13{fill:url(#linear-gradient);}.cls-14{fill:url(#linear-gradient-2);}</style><mask id="mask" x="0" y="0" width="86.97" height="86.97" maskUnits="userSpaceOnUse"><g id="mask0"><g id="Union"><path class="cls-1" d="M12.68,58.36l4.38-4.68,5.44,5.44-4.42,4.42,5.35,5.36,4.42-4.43L33.33,70,29,74.29,41.67,87H61.6a3.62,3.62,0,0,0,3.63-3.62v-29L83.75,42A7.24,7.24,0,0,0,87,36V3.62A3.62,3.62,0,0,0,83.35,0H51a7.24,7.24,0,0,0-6,3.22L32.59,21.74h-29A3.63,3.63,0,0,0,0,25.37V45.3Z"/><path class="cls-1" d="M7.25,79.72V65.23H0V87H21.74V79.72Z"/></g></g></mask><linearGradient id="linear-gradient" x1="-1539.75" y1="769.19" x2="-1538.84" y2="769.19" gradientTransform="matrix(0, 96, 96, 0, -73798.5, 147815.53)" gradientUnits="userSpaceOnUse"><stop offset="0" stop-color="#fff"/><stop offset="1" stop-color="#fff" stop-opacity="0"/></linearGradient><linearGradient id="linear-gradient-2" x1="-1539.75" y1="768.85" x2="-1538.84" y2="768.85" xlink:href="#linear-gradient"/></defs><title>DevOpsIconPipelines96</title><g id="Layer_2" data-name="Layer 2"><g id="Layer_1-2" data-name="Layer 1"><g id="DevOpsIconPipelines96"><g class="cls-2"><path id="Flame" class="cls-3" d="M0,65.23H7.25V79.72H21.74V87H0Z"/><path id="Wings" class="cls-4" d="M0,25.37V45.3L12.68,58.36l5.44-5.81,16.31,16.3L29,74.29,41.67,87H61.6a3.62,3.62,0,0,0,3.63-3.62v-29L32.61,21.74h-29A3.63,3.63,0,0,0,0,25.37Z"/><g id="Body"><path class="cls-5" d="M13.59,50.21,47.11,0H87V39.86L36.76,73.38Z"/></g><path id="Body_2" data-name="Body 2" class="cls-6" d="M15.69,52.31a3.62,3.62,0,0,1-.45-4.57L45,3.22A7.24,7.24,0,0,1,51,0H83.35A3.62,3.62,0,0,1,87,3.62V36a7.24,7.24,0,0,1-3.22,6L39.23,71.73a3.62,3.62,0,0,1-4.57-.45Z"/><path class="cls-7" d="M18.08,63.54,45.74,35.87l5.36,5.36L23.43,68.9Z"/><path id="Wing" class="cls-8" d="M18.08,63.54,45.74,35.87l5.36,5.36L23.43,68.9Z"/><path id="Intersect" class="cls-9" d="M27.85,64.47,22.5,59.12,45.74,35.87l5.36,5.36Z"/><path class="cls-10" d="M63.42,34.43A10.88,10.88,0,1,0,52.55,23.55,10.88,10.88,0,0,0,63.42,34.43Z"/><path id="Window" class="cls-11" d="M63.42,34.43A10.88,10.88,0,1,0,52.55,23.55,10.88,10.88,0,0,0,63.42,34.43Z"/><g id="Union_2" data-name="Union 2" class="cls-12"><path class="cls-13" d="M12.68,58.36l4.38-4.68,5.44,5.44-4.42,4.42,5.35,5.36,4.42-4.43L33.33,70,29,74.29,41.67,87H61.6a3.62,3.62,0,0,0,3.63-3.62v-29L83.75,42A7.24,7.24,0,0,0,87,36V3.62A3.62,3.62,0,0,0,83.35,0H51a7.24,7.24,0,0,0-6,3.22L32.59,21.74h-29A3.63,3.63,0,0,0,0,25.37V45.3Z"/><path class="cls-14" d="M7.25,79.72V65.23H0V87H21.74V79.72Z"/></g></g></g></g></g></svg>