<svg xmlns="http://www.w3.org/2000/svg" xmlns:xlink="http://www.w3.org/1999/xlink" viewBox="0 0 85.06 85.06"><defs><style>.cls-1{fill:#fff;}.cls-2{mask:url(#mask);}.cls-3{fill:#048e75;}.cls-4{fill:#087e60;}.cls-5{fill:#3dbca5;}.cls-6{fill:#01b294;}.cls-7{fill:#57c2b1;}.cls-8{fill:#01664d;}.cls-9{fill:#8ed2cd;}.cls-10{fill:#cdeae9;fill-rule:evenodd;}.cls-11{opacity:0.25;isolation:isolate;fill:url(#linear-gradient);}</style><mask id="mask" x="0" y="0" width="85.06" height="85.06" maskUnits="userSpaceOnUse"><g id="mask0"><path id="Union" class="cls-1" d="M3.54,0A3.55,3.55,0,0,0,0,3.54V60.25a3.54,3.54,0,0,0,3.54,3.54H35.69A24.81,24.81,0,1,0,78,42.89V3.54A3.55,3.55,0,0,0,74.42,0Z"/></g></mask><linearGradient id="linear-gradient" x1="-1231.91" y1="504.2" x2="-1231.03" y2="504.2" gradientTransform="matrix(0, 96, 96, 0, -48360.78, 118263.61)" gradientUnits="userSpaceOnUse"><stop offset="0" stop-color="#fff"/><stop offset="1" stop-color="#fff" stop-opacity="0"/></linearGradient></defs><title>DevOpsIconBoards96</title><g id="Layer_2" data-name="Layer 2"><g id="Layer_1-2" data-name="Layer 1"><g id="DevOpsIconBoards96"><g id="Group"><g class="cls-2"><path id="Rectangle" class="cls-3" d="M0,3.54A3.55,3.55,0,0,1,3.54,0H74.42A3.55,3.55,0,0,1,78,3.54V60.25a3.54,3.54,0,0,1-3.55,3.54H3.54A3.54,3.54,0,0,1,0,60.25Z"/><g id="Ellipse"><circle class="cls-4" cx="60.25" cy="60.25" r="24.81"/></g><circle id="Ellipse_2" data-name="Ellipse 2" class="cls-5" cx="60.25" cy="60.25" r="24.81"/><path id="Intersect" class="cls-6" d="M78,42.89V60.25a3.54,3.54,0,0,1-3.55,3.54H35.69a25.88,25.88,0,0,1-.25-3.54A24.81,24.81,0,0,1,78,42.89Z"/><g id="Union_2" data-name="Union 2"><path class="cls-6" d="M47.84,7.09H30.12V17.72H47.84Z"/><path class="cls-6" d="M70.88,7.09H53.16V17.72H70.88Z"/><path class="cls-6" d="M47.84,23H30.12V33.67H47.84Z"/><path class="cls-6" d="M24.81,39H7.09V49.62H24.81Z"/><path class="cls-6" d="M24.81,7.09H7.09V17.72H24.81Z"/></g><path id="Union_3" data-name="Union 3" class="cls-7" d="M47.84,7.09H30.12V17.72H47.84Z"/><g id="Union_4" data-name="Union 4"><path class="cls-8" d="M24.81,23H7.09V33.67H24.81Z"/></g><path id="Union_5" data-name="Union 5" class="cls-9" d="M24.81,23H7.09V33.67H24.81Z"/><path class="cls-10" d="M77.82,53,57.59,73.23,44.45,60.1l5-5,8.13,8.13L72.8,48Z"/><path id="Union_6" data-name="Union 6" class="cls-11" d="M3.54,0A3.55,3.55,0,0,0,0,3.54V60.25a3.54,3.54,0,0,0,3.54,3.54H35.69A24.81,24.81,0,1,0,78,42.89V3.54A3.55,3.55,0,0,0,74.42,0Z"/></g></g></g></g></g></svg>