<svg xmlns="http://www.w3.org/2000/svg" xmlns:xlink="http://www.w3.org/1999/xlink" viewBox="0 0 80 80"><defs><style>.cls-1{fill:#fff;}.cls-2{mask:url(#mask);}.cls-3{fill:#b31e57;}.cls-4{fill:#a71d51;}.cls-5{fill:#8e1841;}.cls-6{fill:#89163b;}.cls-7{fill:#cd2f6e;}.cls-8{fill:#b11f58;}.cls-9{fill:#bd2661;}.cls-10{opacity:0.5;}.cls-11{fill:#781033;}.cls-12{fill:#ed74a6;}.cls-13{fill:url(#linear-gradient);}.cls-14{fill:#c9306e;}.cls-15{fill:#e66398;}.cls-16{fill:#f392bd;}.cls-17{opacity:0.2;isolation:isolate;fill:url(#linear-gradient-2);}</style><mask id="mask" x="0" y="0" width="80" height="80" maskUnits="userSpaceOnUse"><g id="mask0"><path id="Union" class="cls-1" d="M13.33,3.33A3.34,3.34,0,0,1,16.67,0H63.33a3.34,3.34,0,0,1,3.34,3.33V40h10A3.33,3.33,0,0,1,80,43.33V76.67A3.33,3.33,0,0,1,76.67,80H3.33A3.33,3.33,0,0,1,0,76.67V43.33A3.33,3.33,0,0,1,3.33,40h10Z"/></g></mask><linearGradient id="linear-gradient" x1="-1306.19" y1="666.42" x2="-1305.36" y2="666.42" gradientTransform="matrix(0, 48, 32, 0, -21285.53, 62737.07)" gradientUnits="userSpaceOnUse"><stop offset="0" stop-color="#e66398"/><stop offset="1" stop-color="#ed74a6"/></linearGradient><linearGradient id="linear-gradient-2" x1="-1308.27" y1="639.29" x2="-1307.44" y2="639.29" gradientTransform="matrix(0, 96, 96, 0, -61331.57, 125593.82)" gradientUnits="userSpaceOnUse"><stop offset="0" stop-color="#fff"/><stop offset="1" stop-color="#fff" stop-opacity="0"/></linearGradient></defs><title>DevOpsIconArtifacts96</title><g id="Layer_2" data-name="Layer 2"><g id="Layer_1-2" data-name="Layer 1"><g id="DevOpsIconArtifacts96"><g class="cls-2"><g id="Group"><path class="cls-3" d="M0,43.33A3.33,3.33,0,0,1,3.33,40H36.67A3.33,3.33,0,0,1,40,43.33V76.67A3.33,3.33,0,0,1,36.67,80H3.33A3.33,3.33,0,0,1,0,76.67Z"/><path class="cls-4" d="M29.33,40h7.34A3.33,3.33,0,0,1,40,43.33V75a3.33,3.33,0,0,1-3.33,3.33H29.33Z"/><path id="Rectangle" class="cls-5" d="M15.83,46.67h8.34a2.5,2.5,0,0,1,2.5,2.5h0a2.5,2.5,0,0,1-2.5,2.5H15.83a2.5,2.5,0,0,1-2.5-2.5h0A2.5,2.5,0,0,1,15.83,46.67Z"/></g><path class="cls-6" d="M13.33,3.33A3.34,3.34,0,0,1,16.67,0H63.33a3.34,3.34,0,0,1,3.34,3.33V40H13.33Z"/><path class="cls-7" d="M13.33,3.33A3.34,3.34,0,0,1,16.67,0H63.33a3.34,3.34,0,0,1,3.34,3.33V40H13.33Z"/><path id="Rectangle_2" data-name="Rectangle 2" class="cls-8" d="M29.17,8.33H37.5a2.5,2.5,0,0,1,2.5,2.5h0a2.5,2.5,0,0,1-2.5,2.5H29.17a2.5,2.5,0,0,1-2.5-2.5h0A2.5,2.5,0,0,1,29.17,8.33Z"/><path class="cls-9" d="M53.33,0h10a3.34,3.34,0,0,1,3.34,3.33V40H53.33Z"/><g class="cls-10"><path class="cls-11" d="M26.67,40h50A3.33,3.33,0,0,1,80,43.33V76.67A3.33,3.33,0,0,1,76.67,80H30a3.33,3.33,0,0,1-3.33-3.33Z"/></g><path class="cls-12" d="M26.67,40h50A3.33,3.33,0,0,1,80,43.33V76.67A3.33,3.33,0,0,1,76.67,80H30a3.33,3.33,0,0,1-3.33-3.33Z"/><path id="Intersect" class="cls-13" d="M30.48,80H53.33V40H26.67V76.52A3.65,3.65,0,0,0,30.48,80Z"/><path id="Rectangle_3" data-name="Rectangle 3" class="cls-14" d="M42.5,46.67h8.33a2.5,2.5,0,0,1,2.5,2.5h0a2.5,2.5,0,0,1-2.5,2.5H42.5a2.5,2.5,0,0,1-2.5-2.5h0A2.5,2.5,0,0,1,42.5,46.67Z"/><path class="cls-15" d="M66.67,40h10A3.33,3.33,0,0,1,80,43.33V76.67A3.33,3.33,0,0,1,76.67,80h-10Z"/><g id="Union_2" data-name="Union 2"><path class="cls-16" d="M53.33,63.33h-20v3.34h20Z"/><path class="cls-16" d="M45,70H33.33v3.33H45Z"/></g><path id="Union_3" data-name="Union 3" class="cls-17" d="M13.33,3.33A3.34,3.34,0,0,1,16.67,0H63.33a3.34,3.34,0,0,1,3.34,3.33V40h10A3.33,3.33,0,0,1,80,43.33V76.67A3.33,3.33,0,0,1,76.67,80H3.33A3.33,3.33,0,0,1,0,76.67V43.33A3.33,3.33,0,0,1,3.33,40h10Z"/></g></g></g></g></svg>