<svg xmlns="http://www.w3.org/2000/svg" xmlns:xlink="http://www.w3.org/1999/xlink" viewBox="0 0 75.63 82.5"><defs><style>.cls-1{fill:#fff;}.cls-2{mask:url(#mask);}.cls-3{fill:#c33c27;}.cls-4{opacity:0.75;}.cls-5{fill:#5e1b0c;}.cls-6{fill:#d64026;}.cls-7{fill:#c93b27;}.cls-8{opacity:0.6;}.cls-9{fill:#7c1f16;}.cls-10{fill:url(#linear-gradient);}.cls-11,.cls-12,.cls-13,.cls-14,.cls-15,.cls-17{fill-rule:evenodd;}.cls-11{fill:url(#linear-gradient-2);}.cls-12{fill:#f89f7d;}.cls-13{fill:#be2826;}.cls-14,.cls-16{fill:#fcd5c7;}.cls-15{fill:#fabba4;}.cls-17{opacity:0.25;isolation:isolate;fill:url(#linear-gradient-3);}</style><mask id="mask" x="0" y="0" width="75.63" height="82.5" maskUnits="userSpaceOnUse"><g id="mask0"><path id="Union" class="cls-1" d="M58.44,0a3.44,3.44,0,0,1,3.44,3.44V6.88h3.44a3.43,3.43,0,0,1,3.43,3.43v3.44h3.44a3.44,3.44,0,0,1,3.44,3.44V79.07a3.44,3.44,0,0,1-3.44,3.43H3.44A3.44,3.44,0,0,1,0,79.07V17.19a3.44,3.44,0,0,1,3.44-3.44H6.88V10.31a3.42,3.42,0,0,1,3.43-3.43h3.44V3.44A3.44,3.44,0,0,1,17.19,0Z"/></g></mask><linearGradient id="linear-gradient" x1="-1384.78" y1="523.14" x2="-1383.92" y2="523.14" gradientTransform="matrix(0, 64, 65.83, 0, -34399.52, 88639.64)" gradientUnits="userSpaceOnUse"><stop offset="0" stop-color="#c72b27"/><stop offset="1" stop-color="#d64026" stop-opacity="0"/></linearGradient><linearGradient id="linear-gradient-2" x1="-1379.46" y1="685.93" x2="-1378.6" y2="685.93" gradientTransform="matrix(0, 31.5, 7.52, 0, -5136.47, 43488.69)" gradientUnits="userSpaceOnUse"><stop offset="0" stop-color="#f89f7d"/><stop offset="1" stop-color="#d64026"/></linearGradient><linearGradient id="linear-gradient-3" x1="-1385.83" y1="520.77" x2="-1384.97" y2="520.77" gradientTransform="matrix(0, 80, 74.17, 0, -38586.21, 110880.35)" gradientUnits="userSpaceOnUse"><stop offset="0" stop-color="#fdd6c1"/><stop offset="1" stop-color="#fbc2a0" stop-opacity="0"/></linearGradient></defs><title>DevOpsIconRepos96</title><g id="Layer_2" data-name="Layer 2"><g id="Layer_1-2" data-name="Layer 1"><g id="DevOpsIconRepos96"><g class="cls-2"><path id="Rectangle" class="cls-3" d="M58.44,0a3.44,3.44,0,0,1,3.44,3.44v61a3.44,3.44,0,0,1-3.44,3.43H17.19a3.44,3.44,0,0,1-3.44-3.43v-61A3.44,3.44,0,0,1,17.19,0Z"/><g id="Rectangle_2" data-name="Rectangle 2" class="cls-4"><path class="cls-5" d="M65.32,6.88a3.43,3.43,0,0,1,3.43,3.43V70.47a3.44,3.44,0,0,1-3.43,3.44h-55a3.43,3.43,0,0,1-3.43-3.44V10.31a3.42,3.42,0,0,1,3.43-3.43Z"/></g><path id="Rectangle_3" data-name="Rectangle 3" class="cls-6" d="M65.32,6.88a3.43,3.43,0,0,1,3.43,3.43V70.47a3.44,3.44,0,0,1-3.43,3.44h-55a3.43,3.43,0,0,1-3.43-3.44V10.31a3.42,3.42,0,0,1,3.43-3.43Z"/><rect class="cls-7" x="13.75" y="6.88" width="48.13" height="6.88"/><g id="Rectangle_4" data-name="Rectangle 4" class="cls-8"><path class="cls-9" d="M72.19,13.75a3.44,3.44,0,0,1,3.44,3.44V79.07a3.44,3.44,0,0,1-3.44,3.43H3.44A3.44,3.44,0,0,1,0,79.07V17.19a3.44,3.44,0,0,1,3.44-3.44Z"/></g><path id="Rectangle_5" data-name="Rectangle 5" class="cls-6" d="M72.19,13.75a3.44,3.44,0,0,1,3.44,3.44V79.07a3.44,3.44,0,0,1-3.44,3.43H3.44A3.44,3.44,0,0,1,0,79.07V17.19a3.44,3.44,0,0,1,3.44-3.44Z"/><path id="Intersect" class="cls-10" d="M68.75,13.75H6.88V70.47a3.26,3.26,0,0,0,3.05,3.44H65.7a3.27,3.27,0,0,0,3-3.44Z"/><path class="cls-11" d="M26.64,32.66V63.6H19.77V32.66Z"/><path id="Subtract" class="cls-12" d="M31.8,27.5a8.6,8.6,0,1,1-8.6-8.59A8.6,8.6,0,0,1,31.8,27.5Zm-8.6,5.16a5.16,5.16,0,1,0-5.15-5.16A5.16,5.16,0,0,0,23.2,32.66Z"/><g id="Union_2" data-name="Union 2"><path class="cls-13" d="M56.72,35.38a8.6,8.6,0,1,0-6.87,0v4.36L19.77,52.63v8.24a8.6,8.6,0,1,0,6.87,0V57.16L56.72,44.27Zm-3.44-2.72a5.16,5.16,0,1,0-5.15-5.16A5.16,5.16,0,0,0,53.28,32.66ZM18.05,68.75a5.16,5.16,0,1,1,5.15,5.16A5.16,5.16,0,0,1,18.05,68.75Z"/></g><g id="Group"><path id="Subtract_2" data-name="Subtract 2" class="cls-14" d="M31.8,68.75a8.6,8.6,0,1,1-8.6-8.59A8.6,8.6,0,0,1,31.8,68.75Zm-8.6,5.16a5.16,5.16,0,1,0-5.15-5.16A5.16,5.16,0,0,0,23.2,73.91Z"/><path class="cls-15" d="M56.72,32.66V44.27L26.64,57.16V63.6H19.77v-11L49.85,39.74V32.66Z"/><path id="Intersect_2" data-name="Intersect 2" class="cls-16" d="M19.77,52.62v11h6.87l0-13.93Z"/><path id="Subtract_3" data-name="Subtract 3" class="cls-15" d="M61.88,27.5a8.6,8.6,0,1,1-8.6-8.59A8.6,8.6,0,0,1,61.88,27.5Zm-8.6,5.16a5.16,5.16,0,1,0-5.15-5.16A5.16,5.16,0,0,0,53.28,32.66Z"/></g><path id="Subtract_4" data-name="Subtract 4" class="cls-17" d="M3.44,13.75A3.44,3.44,0,0,0,0,17.19V79.07A3.44,3.44,0,0,0,3.44,82.5H72.19a3.44,3.44,0,0,0,3.44-3.43V17.19a3.44,3.44,0,0,0-3.44-3.44H3.44Z"/></g></g></g></g></svg>