<svg xmlns="http://www.w3.org/2000/svg" viewBox="0 0 270 362.72"><defs><style>.cls-1{fill:#f15a22;stroke:#e6e7e8;stroke-miterlimit:10;stroke-width:5px;}</style></defs><title>Asset 13</title><g id="Layer_2" data-name="Layer 2"><g id="Layer_2_copy_3" data-name="Layer 2 copy 3"><path class="cls-1" d="M267.5,55.14l-.58,89a7.6,7.6,0,0,1-3.85,6.57l-87,50a7.62,7.62,0,0,0-3.81,6.6l-.42,101.41a7.64,7.64,0,0,1-3.85,6.57l-77.33,44a7.6,7.6,0,0,1-7.62-.05l-76.76-45a7.62,7.62,0,0,1-3.76-6.62l.58-89A7.61,7.61,0,0,1,6.92,212l77.34-44a.74.74,0,0,0,.14-.17l9.28-5.28A7.62,7.62,0,0,0,97.53,156l.57-89,.08-13A7.6,7.6,0,0,1,102,47.48l77.33-44a7.63,7.63,0,0,1,7.62,0l76.75,45A7.59,7.59,0,0,1,267.5,55.14Z"/></g></g></svg>