<svg xmlns="http://www.w3.org/2000/svg" viewBox="0 0 269.86 362.8"><defs><style>.cls-1{fill:#f15a22;stroke:#e6e7e8;stroke-miterlimit:10;stroke-width:5px;}.cls-2{font-size:38px;fill:#fff;font-family:SegoeUI-Light, Segoe UI;font-weight:300;}.cls-3{letter-spacing:0em;}</style></defs><title>modern</title><g id="Layer_2" data-name="Layer 2"><g id="Layer_2_copy_3" data-name="Layer 2 copy 3"><path class="cls-1" d="M178,359.26l-76.76-45a7.61,7.61,0,0,1-3.77-6.62l.23-100.35a7.64,7.64,0,0,0-3.81-6.6L6.26,149.63A7.65,7.65,0,0,1,2.5,143l.58-89a7.58,7.58,0,0,1,3.85-6.57l77.33-44a7.63,7.63,0,0,1,7.62.06l76.75,45a7.61,7.61,0,0,1,3.77,6.61l-.58,89a.65.65,0,0,0,.07.2L171.83,155a7.64,7.64,0,0,0,3.76,6.62l76.76,45,11.24,6.59a7.6,7.6,0,0,1,3.77,6.62l-.58,89a7.64,7.64,0,0,1-3.84,6.58l-77.34,44A7.58,7.58,0,0,1,178,359.26Z"/><text class="cls-2" transform="translate(42.57 47.33) rotate(60)">Mode<tspan class="cls-3" x="93.44" y="0">r</tspan><tspan x="105.87" y="0">n Engineering</tspan></text></g></g></svg>